<?xml version="1.0" encoding="UTF-8" standalone="no"?>
<svg
   xmlns:dc="http://purl.org/dc/elements/1.1/"
   xmlns:cc="http://creativecommons.org/ns#"
   xmlns:rdf="http://www.w3.org/1999/02/22-rdf-syntax-ns#"
   xmlns:svg="http://www.w3.org/2000/svg"
   xmlns="http://www.w3.org/2000/svg"
   xmlns:sodipodi="http://sodipodi.sourceforge.net/DTD/sodipodi-0.dtd"
   xmlns:inkscape="http://www.inkscape.org/namespaces/inkscape"
   inkscape:version="1.0 (4035a4fb49, 2020-05-01)"
   height="48"
   width="48"
   sodipodi:docname="google.svg"
   xml:space="preserve"
   viewBox="0 0 48 48"
   version="1.1"
   id="Layer_1"
   enable-background="new 0 0 50 50"><metadata
     id="metadata29"><rdf:RDF><cc:Work
         rdf:about=""><dc:format>image/svg+xml</dc:format><dc:type
           rdf:resource="http://purl.org/dc/dcmitype/StillImage" /><dc:title></dc:title></cc:Work></rdf:RDF></metadata><defs
     id="defs27" /><sodipodi:namedview
     inkscape:current-layer="Layer_1"
     inkscape:window-maximized="1"
     inkscape:window-y="-8"
     inkscape:window-x="-8"
     inkscape:cy="-51.400364"
     inkscape:cx="82.863452"
     inkscape:zoom="2"
     showgrid="false"
     id="namedview25"
     inkscape:window-height="1017"
     inkscape:window-width="1920"
     inkscape:pageshadow="2"
     inkscape:pageopacity="0"
     guidetolerance="10"
     gridtolerance="10"
     objecttolerance="10"
     borderopacity="1"
     bordercolor="#666666"
     pagecolor="#ffffff" /><path
     id="path2"
     fill="#FFFFFF"
     d="M 44.000001,0 H 4 C 1.8,0 0,1.8 0,4 v 39.999999 c 0,2.200001 1.8,4 4,4 h 40.000001 c 2.2,0 4,-1.799999 4,-4 V 4 c 0,-2.2 -1.8,-4 -4,-4 z" /><g
     id="g22"><path
       id="path4"
       fill="#ffffff"
       d="m 20.3,10.5 c -3.7,1.3 -6.9,4.1 -8.7,7.6 -0.6,1.2 -1.1,2.5 -1.3,3.9 -0.7,3.3 -0.2,6.9 1.3,9.9 1,2 2.4,3.7 4.2,5.1 1.6,1.3 3.5,2.3 5.6,2.8 2.6,0.7 5.3,0.7 7.8,0.1 2.3,-0.5 4.5,-1.6 6.3,-3.3 1.9,-1.7 3.2,-3.9 3.9,-6.4 0.8,-2.6 0.9,-5.4 0.4,-8.1 -4.8,0 -9.6,0 -14.4,0 0,2 0,4 0,6 2.8,0 5.6,0 8.3,0 -0.3,1.9 -1.5,3.7 -3.1,4.7 -1,0.7 -2.2,1.1 -3.4,1.3 -1.2,0.2 -2.5,0.2 -3.7,0 -1.2,-0.2 -2.4,-0.8 -3.4,-1.5 -1.6,-1.1 -2.9,-2.8 -3.5,-4.7 -0.7,-1.9 -0.7,-4 0,-6 0.5,-1.3 1.2,-2.6 2.2,-3.6 1.2,-1.3 2.8,-2.2 4.6,-2.5 1.5,-0.3 3,-0.3 4.5,0.2 1.2,0.4 2.4,1.1 3.3,1.9 0.9,-0.9 1.9,-1.9 2.8,-2.8 0.5,-0.5 1,-1 1.5,-1.5 -1.4,-1.3 -3.1,-2.4 -4.9,-3.1 -3.3,-1.1 -7,-1.1 -10.3,0 z" /><g
       id="g8"><path
         id="path6"
         fill="#ea4335"
         d="m 20.3,10.5 c 3.3,-1.1 7,-1.1 10.3,0.1 1.8,0.7 3.5,1.7 4.9,3.1 -0.5,0.5 -1,1 -1.5,1.5 -0.9,0.9 -1.9,1.9 -2.8,2.8 -0.9,-0.9 -2.1,-1.6 -3.3,-1.9 -1.4,-0.4 -3,-0.5 -4.5,-0.2 -1.7,0.4 -3.3,1.3 -4.6,2.5 -1,1 -1.8,2.3 -2.2,3.6 -1.7,-1.3 -3.3,-2.6 -5,-3.9 1.8,-3.5 5,-6.3 8.7,-7.6 z" /></g><g
       id="g12"><path
         id="path10"
         fill="#fbbc05"
         d="m 10.3,22 c 0.3,-1.3 0.7,-2.6 1.3,-3.9 1.7,1.3 3.3,2.6 5,3.9 -0.7,1.9 -0.7,4 0,6 -1.7,1.3 -3.3,2.6 -5,3.9 -1.5,-3.1 -2,-6.6 -1.3,-9.9 z" /></g><g
       id="g16"><path
         id="path14"
         fill="#4285f4"
         d="m 25.3,22.1 c 4.8,0 9.6,0 14.4,0 0.5,2.7 0.4,5.5 -0.4,8.1 -0.7,2.4 -2,4.6 -3.9,6.4 -1.6,-1.3 -3.2,-2.5 -4.9,-3.8 1.6,-1.1 2.7,-2.8 3.1,-4.7 -2.8,0 -5.6,0 -8.3,0 0,-2 0,-4 0,-6 z" /></g><g
       id="g20"><path
         id="path18"
         fill="#34a853"
         d="m 11.6,31.9 c 1.7,-1.3 3.3,-2.6 5,-3.9 0.6,1.9 1.9,3.6 3.5,4.7 1,0.7 2.2,1.2 3.4,1.5 1.2,0.2 2.4,0.2 3.7,0 1.2,-0.2 2.4,-0.7 3.4,-1.3 1.6,1.3 3.2,2.5 4.9,3.8 -1.8,1.6 -3.9,2.7 -6.3,3.3 -2.6,0.6 -5.3,0.6 -7.8,-0.1 -2,-0.5 -3.9,-1.5 -5.6,-2.8 -1.7,-1.5 -3.2,-3.3 -4.2,-5.2 z" /></g></g></svg>
