<?xml version="1.0" encoding="UTF-8" standalone="no"?>
<svg
   xmlns:dc="http://purl.org/dc/elements/1.1/"
   xmlns:cc="http://creativecommons.org/ns#"
   xmlns:rdf="http://www.w3.org/1999/02/22-rdf-syntax-ns#"
   xmlns:svg="http://www.w3.org/2000/svg"
   xmlns="http://www.w3.org/2000/svg"
   xmlns:sodipodi="http://sodipodi.sourceforge.net/DTD/sodipodi-0.dtd"
   xmlns:inkscape="http://www.inkscape.org/namespaces/inkscape"
   inkscape:version="1.0 (4035a4fb49, 2020-05-01)"
   sodipodi:docname="logo.svg"
   id="svg60"
   version="1.1"
   fill="none"
   viewBox="0 0 72 72"
   height="72"
   width="72">
  <metadata
     id="metadata66">
    <rdf:RDF>
      <cc:Work
         rdf:about="">
        <dc:format>image/svg+xml</dc:format>
        <dc:type
           rdf:resource="http://purl.org/dc/dcmitype/StillImage" />
        <dc:title></dc:title>
      </cc:Work>
    </rdf:RDF>
  </metadata>
  <defs
     id="defs64" />
  <sodipodi:namedview
     inkscape:current-layer="svg60"
     inkscape:window-maximized="1"
     inkscape:window-y="-8"
     inkscape:window-x="-8"
     inkscape:cy="63.270853"
     inkscape:cx="88.5"
     inkscape:zoom="6.0282486"
     showgrid="false"
     id="namedview62"
     inkscape:window-height="1017"
     inkscape:window-width="1920"
     inkscape:pageshadow="2"
     inkscape:pageopacity="0"
     guidetolerance="10"
     gridtolerance="10"
     objecttolerance="10"
     borderopacity="1"
     bordercolor="#666666"
     pagecolor="#ffffff" />
  <path
     id="path52"
     fill="#1C1C1C"
     d="m 36.077789,17.736176 c 0,9.665 -7.835,17.5 -17.5,17.5 H 1.0777886 v -17.5 c 0,-9.6650001 7.835,-17.49999985 17.5000004,-17.49999985 9.665,0 17.5,7.83499975 17.5,17.49999985 z" />
  <path
     id="path54"
     fill="#1C1C1C"
     d="m 36.077789,52.736176 c 0,-9.665 7.834999,-17.5 17.499999,-17.5 h 17.5 v 17.5 c 0,9.665 -7.835,17.5 -17.5,17.5 -9.665,0 -17.499999,-7.835 -17.499999,-17.5 z" />
  <path
     id="path56"
     fill="#1C1C1C"
     d="m 1.0777886,52.736176 c 0,9.665 7.835,17.5 17.5000004,17.5 h 17.5 v -17.5 c 0,-9.665 -7.835,-17.5 -17.5,-17.5 -9.6650004,0 -17.5000004,7.835 -17.5000004,17.5 z" />
  <path
     id="path58"
     fill="#1C1C1C"
     d="m 71.077788,17.736176 c 0,-9.6650001 -7.835,-17.49999985 -17.5,-17.49999985 H 36.077789 V 17.736176 c 0,9.665 7.834999,17.5 17.499999,17.5 9.665,0 17.5,-7.835 17.5,-17.5 z" />
</svg>
